<svg xmlns="http://www.w3.org/2000/svg" xmlns:xlink="http://www.w3.org/1999/xlink" width="300" zoomAndPan="magnify" viewBox="0 0 224.87999 68.249996" height="91" preserveAspectRatio="xMidYMid meet" version="1.0"><defs><g/></defs><g fill="#ffffff" fill-opacity="1"><g transform="translate(3.553204, 58.774729)"><g><path d="M 68.40625 0 L 51.09375 0 L 47.25 -6.671875 L 21.5625 -6.671875 L 17.734375 0 L 0.421875 0 L 26.484375 -40.703125 L 42.34375 -40.703125 Z M 41.5 -16.75 L 34.421875 -29.09375 L 27.328125 -16.75 Z M 41.5 -16.75 "/></g></g></g><g fill="#ffffff" fill-opacity="1"><g transform="translate(72.378051, 58.774729)"><g><path d="M 21.625 0 L 4.546875 0 L 4.546875 -40.734375 L 32.328125 -40.734375 C 38.960938 -40.734375 44.316406 -40.234375 48.390625 -39.234375 C 52.472656 -38.242188 55.453125 -36.679688 57.328125 -34.546875 C 59.203125 -32.421875 60.140625 -29.644531 60.140625 -26.21875 C 60.140625 -22.8125 59.203125 -20.046875 57.328125 -17.921875 C 55.453125 -15.796875 52.472656 -14.234375 48.390625 -13.234375 C 44.316406 -12.242188 38.960938 -11.75 32.328125 -11.75 L 21.625 -11.75 Z M 21.625 -21.796875 L 31.390625 -21.828125 C 34.117188 -21.828125 36.265625 -21.9375 37.828125 -22.15625 C 39.398438 -22.375 40.5625 -22.679688 41.3125 -23.078125 C 42.0625 -23.472656 42.535156 -23.9375 42.734375 -24.46875 C 42.941406 -25.007812 43.046875 -25.59375 43.046875 -26.21875 C 43.046875 -26.863281 42.941406 -27.457031 42.734375 -28 C 42.535156 -28.539062 42.0625 -29.007812 41.3125 -29.40625 C 40.5625 -29.800781 39.398438 -30.109375 37.828125 -30.328125 C 36.265625 -30.546875 34.117188 -30.65625 31.390625 -30.65625 L 21.625 -30.65625 Z M 21.625 -21.796875 "/></g></g></g><g fill="#ffffff" fill-opacity="1"><g transform="translate(134.788708, 58.774729)"><g><path d="M 81.96875 0 L 64.875 0 L 64.875 -25.96875 L 49.609375 0 L 36.875 0 L 21.625 -25.96875 L 21.625 0 L 4.546875 0 L 4.546875 -40.734375 L 24.828125 -40.734375 L 43.25 -11.640625 L 61.640625 -40.734375 L 81.96875 -40.734375 Z M 81.96875 0 "/></g></g></g></svg>